<svg width="98" height="97" xmlns="http://www.w3.org/2000/svg" xmlns:xlink="http://www.w3.org/1999/xlink" xml:space="preserve" overflow="hidden"><g transform="translate(-1142 -21)"><g><g><g><g><path d="M1191 66C1186 66 1182 62 1182 57 1182 52 1186 48 1191 48 1196 48 1200 52 1200 57 1200 62 1196 66 1191 66ZM1191 36C1184.1 36 1177.6 39.4 1173.7 45.2 1169.8 50.9 1169 58.2 1171.5 64.7L1181 85.7 1189.2 102.9C1189.5 103.6 1190.2 104 1191 104 1191.8 104 1192.5 103.6 1192.8 102.9L1201 85.7 1210.5 64.7C1213 58.2 1212.2 50.9 1208.3 45.2 1204.4 39.4 1197.9 36 1191 36Z" fill="#000000" fill-rule="nonzero" fill-opacity="1"/></g></g></g></g></g></svg>