<?xml version="1.0" encoding="UTF-8" standalone="no"?>
<!-- Created with Inkscape (http://www.inkscape.org/) -->
<svg
   xmlns:svg="http://www.w3.org/2000/svg"
   xmlns="http://www.w3.org/2000/svg"
   version="1.0"
   width="301.18109"
   height="473.70471"
   id="svg2407">
  <defs
     id="defs2409" />
  <g
     transform="translate(-252.21624,-100.09773)"
     id="layer1">
    <path
       d="M 368.26249,536.30506 C 367.60166,536.29618 366.98074,536.27843 366.35984,536.5268 C 366.63926,537.94605 367.63716,537.85737 368.79472,537.85294 C 368.6262,537.21869 368.55967,536.8772 368.26249,536.30506 z M 410.14814,478.92743 C 410.63155,481.22484 410.84445,481.75263 412.17943,483.10978 C 412.57417,480.89222 411.51417,480.35113 410.14814,478.92743 z M 467.75194,348.30322 C 466.96693,348.27658 466.41254,349.00395 466.12865,349.65149 C 467.03344,349.14587 467.33059,348.8709 468.05795,348.99065 L 467.75194,348.30322 z M 315.1515,475.28616 C 312.41502,476.73204 309.11528,477.95615 304.67568,478.04926 C 301.28278,478.11579 296.33316,476.2087 296.44845,474.36365 C 296.57265,472.31018 295.52594,469.39628 295.61021,468.0613 C 295.77874,465.29378 305.21234,462.63266 307.16381,462.77016 C 310.37928,463.00078 314.81443,465.24497 316.09176,467.09887 C 318.73954,466.04773 322.62476,463.27133 322.62476,461.54163 C 322.62476,457.54112 310.09985,453.27895 310.09985,449.57998 C 310.09985,447.33138 312.76985,445.40651 314.23344,444.58603 C 312.89401,444.12476 310.14866,443.87638 309.29267,443.80986 C 307.85567,443.69454 307.7936,441.97814 307.60732,440.65204 C 307.04848,436.62936 314.40642,434.59362 312.76985,427.5905 C 311.63001,422.68078 311.47475,421.45667 309.78496,418.77784 C 307.52305,418.64038 305.69575,418.32103 304.25433,418.23233 C 301.17632,418.04606 293.38378,413.1851 286.68669,409.0826 C 279.00499,404.37244 271.13704,397.16976 270.22782,393.36882 C 269.48271,390.26867 270.04156,386.43226 273.14615,385.69156 C 279.03603,384.27231 284.92591,388.18858 292.66085,392.67251 C 299.93004,396.95686 307.9444,405.06879 310.62322,411.7215 C 314.54389,411.75255 318.94803,412.01422 319.63103,411.02965 C 320.762,409.34427 320.1322,405.05991 318.96132,401.56057 C 317.98559,398.61118 317.2671,397.3782 315.3511,394.20708 C 313.56815,391.24883 307.27468,385.7182 304.16563,379.83274 C 303.02138,378.48 304.2632,377.08738 303.9749,375.57056 C 303.66001,374.00493 303.21207,372.46151 304.54705,371.91599 C 307.25693,370.80276 317.31144,376.59064 322.03045,376.8789 C 323.26342,376.95431 325.07298,377.5708 325.33465,376.35556 C 325.60073,375.09157 321.1301,370.16409 318.6686,367.29453 C 315.21361,363.27185 314.07378,359.67939 310.99577,354.94709 C 309.95351,353.34598 310.7341,351.24372 312.15335,349.89099 C 313.49275,347.94839 314.79226,347.83753 316.18046,349.11486 C 318.3537,351.12397 318.30936,351.82474 322.24334,353.1996 C 323.5517,353.69193 325.44552,353.08432 325.55196,351.34129 C 325.81805,346.92831 317.30699,332.90879 317.07195,326.61528 C 317.02314,325.68389 317.02757,323.93204 317.37798,323.23126 C 317.96342,322.13579 319.19195,322.31318 320.35395,321.76767 C 327.02886,318.77394 335.77054,317.24823 336.01005,313.34975 C 336.16084,310.99023 336.03667,307.99205 335.5621,305.5971 C 330.53263,305.29105 324.44315,300.38132 321.71109,294.55355 C 320.43822,291.79486 320.24749,288.97857 320.79746,286.5614 C 321.18776,284.63654 322.26107,283.05318 322.47396,282.36575 C 323.09487,280.4054 323.48517,280.20138 325.14838,280.72918 C 326.72285,281.22146 325.73381,281.47871 325.10399,288.61045 C 324.7758,292.71295 328.08,296.48284 334.54644,296.88202 C 335.98345,296.97071 337.42042,295.40954 337.50027,294.07456 C 337.83292,288.63262 333.8723,284.37486 329.3795,282.04198 C 327.88043,281.23034 328.78519,279.94413 328.65214,278.69785 C 328.51906,277.45603 328.36384,276.7242 328.43037,275.69524 C 328.47029,274.98121 328.92711,274.18288 329.65005,274.22722 C 330.36854,274.27157 333.29132,277.02581 334.41784,277.09232 C 335.13634,277.13668 335.58874,276.44482 335.64192,275.6243 C 335.81489,272.85677 331.31767,263.72034 327.00227,256.86358 C 323.90651,251.93613 321.61798,248.91136 318.14081,245.0927 C 311.32842,241.99694 305.34094,237.10051 299.45105,232.31057 C 297.09599,230.41233 296.82987,229.77809 295.93841,229.10837 C 295.25098,228.54956 290.65173,223.87046 290.75814,222.12743 C 290.83355,220.89449 290.88234,216.92503 290.92227,216.41053 C 290.98433,215.284 294.30629,216.20208 295.2288,216.25973 C 303.2387,216.74759 316.47764,236.95417 319.69756,238.1827 C 323.41865,239.6463 325.72936,240.60874 329.72988,240.85711 C 340.40973,241.50908 343.88689,236.77679 343.98447,235.23778 C 344.44571,227.7468 338.88848,217.51488 333.86788,210.30775 C 324.45649,209.21669 318.47345,203.32239 318.91697,196.03544 C 319.5113,186.38895 319.07661,186.49095 320.40275,179.98017 C 321.73331,173.36734 324.43873,173.11009 325.56527,171.34489 C 326.2261,170.3071 328.74526,168.24472 329.7698,168.30682 C 332.64378,168.48421 334.0098,171.34935 336.31609,172.41378 C 338.28086,173.32741 339.1812,173.70441 339.82874,174.34307 C 340.69357,175.19907 341.09273,176.52516 342.99544,180.24626 C 344.00223,182.26424 345.81619,192.42522 344.76505,200.57258 C 353.17854,197.78729 359.46317,189.3117 360.02198,176.77796 C 360.5897,164.14221 360.11513,158.4519 357.49837,147.36846 C 355.70658,139.63798 353.36481,134.03637 347.90958,128.96255 C 347.32856,130.05803 347.36849,131.09141 347.08019,132.41309 C 346.92055,133.33118 345.07108,133.3223 344.81828,132.27562 C 344.17074,129.45484 342.33014,125.83578 342.09064,124.79349 C 341.69148,122.811 342.79142,121.74653 342.70271,119.78623 C 342.65391,118.85484 343.34138,117.76378 344.26389,117.82142 C 346.21536,117.93675 348.06038,121.44939 350.27352,124.05725 C 359.86677,135.56207 364.55471,158.30999 363.91162,168.77694 C 363.10444,182.01591 362.60325,188.47793 358.11044,196.34145 C 354.53128,202.60832 345.99804,209.09252 339.42957,210.3388 C 344.01552,219.58169 348.24223,231.27716 347.93176,236.40866 C 347.45719,244.20566 338.93282,248.83596 330.7189,248.33479 C 328.66544,248.21059 326.62527,247.87798 324.59395,247.4433 C 328.31062,252.30868 331.2955,257.43572 334.77263,264.65173 C 337.69984,270.70128 341.56288,276.50247 341.32781,280.40095 C 341.15926,283.07094 339.47834,283.68743 337.21643,283.54993 C 339.77552,287.20891 342.52529,294.48703 342.35231,297.25455 C 342.19709,299.82252 340.15693,302.89164 337.99702,304.51046 C 339.00823,308.17836 339.62471,313.26102 339.30094,318.49897 C 338.94612,324.3445 323.4009,327.51562 323.16586,331.41414 C 322.95738,334.80257 327.35263,340.42636 330.94068,355.89178 C 331.58823,358.71695 333.50864,362.64206 326.64745,362.01673 C 325.2149,361.93245 322.78886,360.50878 320.66884,359.75921 C 318.02105,358.39763 317.42675,358.02063 317.40015,358.59278 C 317.34246,359.83906 317.55981,360.08743 319.67539,363.57344 C 321.41838,366.443 323.5118,368.7493 324.22141,369.45448 C 326.4656,371.68533 327.92032,372.08451 331.51282,380.60003 C 331.93413,381.60236 332.4841,382.40512 332.4841,384.66706 C 332.4841,385.58069 331.50394,386.9423 330.58144,387.39024 C 329.13113,388.09985 322.82434,384.13927 321.38735,384.05057 C 318.7307,383.88647 316.25585,383.5006 313.9629,382.98168 C 312.6501,382.3874 312.68999,384.04169 315.3777,387.31042 C 318.63313,391.26658 320.85956,395.32474 322.1236,400.65135 C 323.11263,404.80266 323.71579,409.28217 323.60937,411.02965 C 323.47629,413.1851 322.03487,413.86369 321.94617,415.29625 C 321.85747,416.73325 321.20105,417.41626 319.83502,417.84644 C 317.73276,418.5428 315.55068,418.82218 313.48391,418.90204 C 313.6746,419.22135 313.93626,419.95759 314.38866,420.91558 C 315.83898,424.1976 315.97202,425.82975 316.91228,428.9787 C 317.93236,432.54015 313.32424,435.78667 313.7234,437.53857 C 314.02942,438.88684 320.0435,439.13521 321.8974,439.13521 C 324.07507,439.14409 326.61639,439.24167 328.04452,439.52551 C 330.41288,439.92468 330.98503,440.45689 330.99832,441.33506 C 331.01163,442.54141 331.34869,444.66143 331.64586,445.96536 C 331.92529,447.23381 328.78077,447.11406 323.20132,446.11169 C 318.96132,445.34887 314.20682,447.67288 314.18022,449.4292 C 314.14917,451.75766 326.98894,454.09942 326.98894,463.79024 C 326.98894,465.67077 321.95947,470.69578 318.79722,473.0553 C 320.4338,478.34199 321.068,484.56009 321.71109,488.21466 C 322.78441,494.25979 323.68032,498.12722 324.61612,503.02364 C 327.18409,503.17887 329.11783,508.65628 329.37063,516.29363 C 329.82744,518.0189 330.40847,519.44258 330.8564,520.71549 L 330.82981,518.80394 C 332.15145,517.20284 332.67037,505.42305 336.36933,501.84834 C 339.73116,498.58849 343.65628,495.94513 346.94715,492.67644 C 349.80783,489.83347 352.57981,486.85751 355.68886,484.26737 C 356.47829,483.61095 362.70969,478.33756 362.88709,478.04485 C 363.12662,477.6368 363.30401,477.17556 363.4814,476.73645 C 364.72326,476.47479 365.92074,477.00701 366.35984,476.95378 C 365.1446,475.47246 364.36401,474.17737 363.44593,472.55856 C 362.90483,471.605 361.7162,470.88206 360.99771,470.02165 C 360.27923,469.16124 356.25655,462.57502 355.97713,461.68356 C 355.5824,460.4417 355.65781,460.31753 354.549,459.53694 C 354.40708,458.19309 354.05671,457.8649 353.95025,456.91575 C 352.87253,455.86462 353.12089,454.59616 352.46894,453.30111 C 347.39512,443.26435 344.55662,429.19603 343.75384,417.88638 C 343.50548,414.36486 348.3398,414.56446 348.40633,413.32702 C 347.45719,412.10295 347.16447,411.89447 347.19552,410.3067 C 347.21768,408.88745 347.62574,408.1512 348.09585,406.8384 C 348.75669,404.97564 349.51068,401.92426 349.51953,400.06591 C 349.52398,398.02574 352.09636,393.32893 352.61086,390.66781 C 352.77495,389.84288 353.94583,388.42363 353.95025,388.3305 C 354.04341,386.41893 355.73321,381.03467 357.1214,379.77064 C 357.148,379.2739 359.73814,373.33079 360.00426,373.0647 C 360.07967,369.12183 367.52184,359.54188 367.74359,355.91395 C 367.87221,353.84273 365.5482,346.0191 365.16678,343.37574 C 364.97164,342.03634 364.65674,336.8339 364.18659,336.43473 C 363.783,336.26175 363.34835,335.98679 363.05122,335.65857 C 360.66065,333.92887 362.01781,330.5138 362.40809,328.37606 C 363.23303,323.9409 363.49916,319.41703 364.17775,314.99075 C 364.67003,311.76641 364.60793,308.59525 365.04704,305.3842 C 365.18896,304.31977 364.22652,303.60125 363.96484,302.77632 C 362.88267,299.29472 361.56986,296.01715 360.60742,292.43353 C 358.84669,285.83847 357.35644,262.43859 357.60482,257.99457 L 357.6137,256.27372 C 357.25887,255.93219 356.76659,255.19153 356.25655,255.16935 C 354.97034,253.93637 352.99669,252.33973 352.06976,250.86725 C 350.992,249.15086 351.44882,247.35461 349.70583,245.94423 C 349.86993,245.58057 350.07394,245.23462 350.36222,244.9552 L 349.31108,244.89755 L 349.98967,242.92391 L 349.09821,242.94608 L 348.31317,242.34289 C 348.33093,241.82397 349.23568,240.90588 349.60826,240.5378 L 348.81434,240.22732 C 348.98731,239.25159 349.38648,238.93669 349.68365,238.51535 C 350.0429,238.51535 350.47309,237.92549 350.51747,237.60614 C 350.7392,236.06714 352.32697,235.40188 353.55554,234.46604 C 354.32283,233.88505 354.55345,232.0888 355.28524,231.8626 C 355.00585,231.86706 354.71313,231.99569 354.44701,232.06663 C 354.05228,229.8579 355.07679,230.75383 355.91947,229.59624 C 357.30769,227.68469 357.4496,226.79766 360.00869,225.99047 C 360.43444,225.85739 360.83362,225.55138 361.30819,225.66671 C 360.88243,227.39639 360.36793,228.19032 359.46317,229.16606 C 359.84014,229.18823 360.1639,229.21483 360.45221,228.92655 C 361.31706,230.31476 360.11956,229.88454 360.11956,231.18404 C 360.11956,232.38598 361.62751,232.41699 362.26617,231.69851 L 363.42817,231.69851 C 364.26199,230.49215 366.16469,227.71129 367.68594,230.12403 C 368.55967,229.95994 369.25598,229.37004 370.1164,229.37004 C 371.20745,229.37004 372.48479,230.37683 372.19649,231.55659 C 372.83958,231.49894 373.38513,231.64529 373.88187,232.06663 C 374.4318,231.89366 376.6361,230.67401 376.71592,230.67401 C 377.16386,230.67401 377.54973,231.94688 380.15316,231.88035 C 381.9893,231.83601 383.66581,230.94009 385.42213,230.69618 C 388.65535,230.2482 391.6757,229.88896 394.86016,229.15718 C 395.48994,228.86 396.02216,228.80677 396.35035,228.4697 C 397.15311,228.38988 399.23764,227.65364 399.76988,227.08596 C 399.9517,227.09038 402.83455,226.33197 403.03858,226.12352 C 405.51784,226.38519 408.47164,225.29859 410.89767,225.09456 C 414.78286,224.77079 416.49929,225.27195 419.85668,226.15012 C 420.14052,226.82871 419.90989,227.0682 419.63494,227.19241 C 419.26235,227.74234 418.81442,228.19916 418.33543,228.66485 C 418.38865,229.0108 418.40194,229.3612 418.36648,229.70714 C 417.78546,229.91559 417.47502,230.31918 417.39074,230.92238 C 419.33776,231.11752 418.67692,231.14412 420.02964,231.64974 C 420.19374,231.96017 420.40222,232.2529 420.61067,232.5412 C 421.87912,232.53232 422.5976,232.47022 423.58664,233.35725 C 423.46689,234.31081 425.14781,233.6899 425.72884,233.74754 L 426.0526,234.71886 C 427.11261,237.06505 428.98423,235.93851 430.31921,235.87645 C 430.77603,235.85869 431.39252,236.01391 431.85821,236.06714 C 433.8008,236.27558 435.14024,234.85191 437.85012,235.32202 C 438.54201,234.96723 444.9774,232.99801 445.58501,232.99801 C 446.37006,232.99801 447.77601,232.99359 448.53443,232.81174 C 450.04238,232.4525 451.63457,231.45014 453.24454,231.79608 C 455.4488,232.4791 456.64632,232.44362 458.16756,233.52581 C 458.26956,233.89835 458.3583,234.60799 458.30948,234.99383 C 458.18086,236.01391 457.55107,239.67293 458.23855,240.98574 C 458.53127,241.54901 458.78848,241.88161 458.77518,242.57351 C 458.73525,244.17903 456.63744,245.08382 456.63744,245.74908 L 456.63744,248.88473 C 456.43788,250.33062 456.51769,250.86725 455.98548,252.03813 C 456.88581,252.09135 457.5023,251.67001 457.693,250.96928 C 458.12764,251.06239 456.63744,255.73262 456.63744,256.24266 C 455.52421,258.6687 453.54169,258.28728 452.82319,260.97054 C 451.72772,262.82443 451.23543,262.922 449.13317,263.69817 C 448.15297,264.06183 447.36797,264.85575 446.28137,265.25935 C 445.40762,265.58754 440.97247,269.96946 440.01449,270.78555 C 439.75724,271.00288 437.84569,271.15364 438.13397,272.04956 L 438.59524,273.25591 C 437.90334,275.12314 436.37322,274.75944 435.1757,276.08554 C 434.22214,277.11008 433.57019,278.11241 432.9271,279.11477 C 431.71628,279.93971 428.60723,283.27496 427.62708,284.38374 C 427.02834,285.06229 426.84207,285.98039 426.26547,286.67228 C 425.13009,288.03389 423.8173,289.24911 422.69519,290.61069 C 420.31349,293.50242 418.49064,297.30778 416.65009,300.57647 C 419.16036,302.20862 421.84365,302.9848 424.73981,304.90076 C 424.73981,304.90076 433.55689,309.12304 435.65915,310.23625 C 436.55949,310.56447 438.2537,311.28737 438.98995,311.42046 L 440.99022,312.14337 L 443.4118,312.68445 L 444.68468,313.1546 C 447.27039,311.57126 451.1334,312.85743 453.74129,313.10138 C 454.34445,313.5715 461.15241,315.75359 461.31209,315.71369 C 461.57822,316.05518 462.11485,316.1217 462.51403,316.07294 C 465.65412,316.62733 469.80985,318.27277 472.66166,317.91795 C 473.69949,317.50548 478.36527,319.54123 479.50955,318.44575 C 480.07725,318.76506 480.63163,318.84046 481.27472,318.90698 C 482.59639,317.54541 498.29242,310.77734 500.04874,310.70639 C 502.24858,310.20523 509.62424,310.19635 509.62424,310.19635 C 509.79721,310.84386 510.804,310.19635 510.92374,310.75074 L 513.42518,310.75074 C 514.35212,311.48698 514.63599,311.50916 514.60937,311.13658 C 514.60937,311.13658 517.35471,311.08339 517.84258,311.6156 C 518.2107,311.90833 518.60987,312.20988 518.92035,312.57359 L 520.58352,313.87751 C 520.60569,314.69803 519.62995,315.67376 520.04242,316.29026 C 520.98269,317.07972 524.79693,316.99986 524.79693,316.99986 C 524.70378,317.44338 524.93884,317.8115 525.31139,318.0377 C 525.49769,318.43242 526.54438,319.86054 526.99232,320.15772 L 526.37585,321.99386 C 527.34271,322.93412 529.5248,321.80313 528.90389,323.65703 L 530.85978,323.75018 C 531.40974,324.35338 531.42746,325.34241 532.25686,325.20048 C 532.08389,326.87696 531.13921,327.99019 530.01709,328.42929 C 530.28321,328.84618 531.40086,329.34734 531.84439,329.72433 C 532.31008,331.25892 532.51853,331.05044 533.80916,331.70685 C 534.27043,333.28574 533.99542,332.72252 533.17937,333.49423 L 534.92681,333.8934 L 535.6808,334.28369 C 535.17518,335.56099 533.9289,335.56099 533.12614,336.29723 L 531.46297,336.29723 C 531.46297,336.29723 529.74213,336.51455 529.56915,336.71857 C 527.94587,337.07339 522.27777,339.14903 521.41733,340.47959 C 520.65449,340.74571 519.67877,340.46629 519.67877,340.46629 C 519.39492,340.73684 518.68973,340.72354 518.72074,341.06061 C 518.37484,340.98521 516.13065,341.79685 515.99756,342.01417 C 514.87549,342.16051 513.82435,342.15164 512.68452,342.15164 C 512.68452,342.15164 511.85071,343.33139 511.43824,343.08748 L 510.12544,344.5422 L 509.90811,345.47801 C 509.74845,345.42479 507.77922,346.24529 507.77035,346.68882 L 505.68583,346.68882 L 500.89144,345.97475 C 499.74715,346.73317 471.17588,350.69375 470.30214,350.80019 L 469.37076,350.80019 L 468.07129,350.70704 C 467.52132,350.48088 466.9536,350.25468 466.43026,349.95751 C 466.33714,350.25911 466.15529,350.6982 465.83594,350.84455 L 464.76709,351.27919 C 463.87563,352.34807 462.24348,355.10231 461.1214,353.06214 L 461.34314,351.95778 C 461.02383,351.75818 460.58473,351.16832 460.00817,350.79578 C 460.35853,351.73158 460.28759,351.98883 460.5182,352.87584 L 459.70215,352.4767 C 457.2273,352.00213 457.88373,350.37444 455.00529,350.42766 C 453.67919,350.45426 449.39483,355.53253 448.40581,355.64782 C 447.32361,357.4219 445.37215,358.22908 444.64479,360.05192 C 442.40059,363.3029 442.23204,369.9113 441.1632,373.59691 C 440.45801,374.49725 438.37345,383.7002 438.36458,383.72238 C 438.16501,384.10822 437.52193,384.42311 437.40218,384.78681 C 435.75227,389.62113 432.05335,393.79462 429.49873,398.17213 C 428.39879,400.04819 427.82665,402.12383 426.64693,404.03095 C 426.43402,404.37244 426.00826,404.52769 425.64014,404.63857 C 423.6177,408.39516 421.52876,412.11625 419.44421,415.83733 C 420.30907,417.35416 421.24488,419.36328 422.32264,420.70272 C 422.22062,421.11518 423.21409,422.84488 423.21409,422.84488 C 423.06331,424.44597 424.60231,424.30847 425.14339,424.16655 C 429.84468,431.52891 434.6923,439.39689 439.99673,446.3246 C 441.27406,447.99664 442.81307,449.44695 444.03272,451.16335 C 445.46085,453.17691 446.75148,455.31911 448.52109,457.06655 C 449.53675,456.92906 449.90929,457.21289 450.80963,457.58989 C 451.32412,458.99585 451.80754,460.41065 452.39298,461.79 C 453.2268,461.5017 453.2889,462.30447 453.2889,462.88549 C 453.2889,463.87452 457.7817,468.91287 458.58004,470.23009 C 458.04782,470.23454 457.49785,470.64702 457.44462,471.19253 C 455.88345,470.39419 454.1981,470.20792 454.22028,471.85779 C 454.24245,473.98669 453.98966,476.79855 454.21141,478.86536 C 454.57065,482.1651 455.19602,485.58017 455.42663,488.87108 C 455.44439,489.11057 455.62178,491.26161 455.44439,491.45233 C 456.02537,493.13768 455.70163,505.28559 455.70163,507.83133 C 455.70163,509.52114 456.85034,511.58348 457.11201,513.28661 C 457.18295,513.74342 458.14098,514.8522 458.31394,515.49974 C 460.30976,516.07185 461.96851,517.19397 464.15501,516.95447 C 464.54977,516.59523 465.0997,516.5553 465.60978,516.48877 C 467.7564,517.40686 473.07855,517.55321 475.59774,517.42017 C 478.179,519.00351 478.17012,518.14753 480.48529,518.94586 C 486.2643,520.92393 484.44145,525.78485 484.30837,530.14018 C 483.87373,531.56385 484.93816,536.20749 481.80696,535.5023 C 480.69815,534.07417 476.96377,534.51327 475.49129,534.97451 C 475.27397,535.98571 474.89255,537.11669 474.347,538.00816 C 473.58417,539.27216 472.12499,537.9904 471.11378,537.71098 C 469.44616,537.24087 445.22577,536.85058 444.78225,537.03685 C 444.15692,536.51351 442.46266,536.79293 441.75748,537.03685 C 440.28503,536.21191 435.20234,536.44698 433.34398,536.75746 C 432.51905,536.89493 432.65212,535.17853 432.43477,534.75718 C 431.18407,534.13627 430.90465,534.15399 429.49873,534.15399 C 428.19477,534.15399 428.70481,532.53075 428.83343,531.87433 C 429.0685,530.70345 426.54048,530.39743 425.78206,530.4063 L 425.78206,528.43708 C 423.73302,528.19759 424.17654,526.76946 423.12095,526.26388 C 421.79484,525.62963 419.28899,526.75174 418.11369,526.01992 C 417.78992,525.8159 417.66129,525.42118 417.22665,525.28813 L 417.95401,524.30795 C 416.28197,523.02619 416.00697,519.7087 416.00254,517.77941 C 415.99808,516.34686 414.89818,514.25788 414.63206,512.78541 C 414.19299,510.36383 414.21959,507.82692 414.13977,505.42305 C 413.99339,500.8504 413.39911,496.1314 412.89791,491.58538 C 412.77374,490.44109 412.68504,485.91724 412.17055,485.20763 C 411.74921,484.63549 411.05289,484.41372 410.56503,483.92143 C 409.24334,482.57757 409.35425,481.49097 407.08789,480.96763 L 406.98143,483.2517 C 407.26083,483.72186 407.54025,484.21414 407.71322,484.73307 C 406.75078,484.95039 406.72861,487.58041 406.66208,488.44528 C 405.38033,489.88228 399.72995,496.29107 399.82308,496.54387 C 394.9799,501.67537 389.57344,506.07947 384.32223,510.75854 C 383.28881,511.68104 381.75426,512.37294 383.02714,513.70349 C 384.08715,513.70349 391.08585,514.95866 391.23661,515.26468 C 392.19462,515.51305 393.31228,515.27354 394.09287,516.02751 L 395.25045,516.02751 C 397.56559,516.27588 399.07799,517.17179 400.69682,516.95447 C 402.0983,519.08334 402.70593,517.64637 403.9522,518.96358 C 406.06335,522.79558 405.68635,529.04028 402.75915,534.14957 C 400.57706,534.44229 399.6501,532.90329 397.07329,534.16733 C 394.87788,540.20354 392.83329,533.07184 392.16799,539.61368 L 391.01929,539.61368 C 390.89512,538.92625 390.62457,538.25207 390.59352,537.55135 C 389.79518,536.91268 383.20457,535.95912 381.76314,535.78172 L 380.84505,536.29177 L 376.49418,536.29177 C 375.76235,536.26072 371.95258,536.20303 371.27839,536.20303 C 369.27374,536.20303 371.18971,537.60898 369.22936,538.04363 C 369.89908,538.27871 370.5555,538.57142 371.18528,538.90408 C 369.59748,539.67579 367.52184,538.48273 366.20904,537.61786 C 365.99614,535.08538 361.85816,537.24087 360.91789,537.97269 C 360.39455,538.37628 360.06633,539.78223 359.23698,539.62698 C 358.05722,538.10128 358.21689,536.35383 355.986,536.38488 C 353.99906,536.41593 352.44673,536.61108 351.32907,538.20773 C 351.02305,538.63795 350.39327,538.89961 350.40214,539.50281 C 348.84539,540.40315 348.43292,540.06163 346.752,539.57376 C 345.15093,537.82631 344.68523,539.13469 344.21955,538.54925 C 344.41911,535.79503 342.85793,534.86805 342.02413,533.88344 C 340.22345,532.43759 337.83734,534.21167 335.5621,530.3442 C 334.07191,530.81432 334.55531,529.59467 333.08729,529.5725 C 333.23364,528.51248 332.92762,527.27951 332.28895,526.43239 C 331.95188,526.59207 331.59707,526.72512 331.24227,526.79163 C 330.50158,528.17542 329.07791,530.28656 328.20416,530.23333 C 327.18409,530.17123 325.82251,527.09769 325.56968,524.50755 C 325.31247,522.01941 325.22374,520.05906 325.3657,517.69959 C 324.60728,514.97195 324.02627,512.67012 322.8953,512.60359 C 320.94827,512.48384 315.73694,520.20099 311.31066,525.18169 C 316.73043,527.57222 323.0594,530.22446 330.21332,532.82789 C 332.12044,533.56413 332.39099,535.95024 331.90753,537.15217 C 331.04267,539.47176 329.97825,540.02173 327.76953,539.06817 C 320.34065,535.82608 313.23109,532.513 306.53844,529.11122 C 306.10821,529.39507 305.69575,529.47493 305.28328,529.44829 C 304.5648,529.40395 303.69106,528.52578 302.83507,527.34161 C 298.83902,525.34579 294.94495,523.2524 291.1529,521.26988 C 290.35455,520.8086 289.00182,521.0348 289.05504,520.21432 C 289.08609,519.69982 290.21262,519.77081 291.11297,518.59105 C 291.78268,517.704 292.82052,517.56208 293.93372,517.93908 C 295.24652,518.32937 296.85204,519.04344 298.76362,519.77968 C 296.67023,515.22032 294.52804,509.83603 292.32377,505.47628 C 289.74251,500.47785 285.91497,494.06464 283.55104,493.91826 C 282.11845,493.82956 281.12054,498.30018 280.94315,501.28062 C 280.07387,515.44206 285.53798,535.65752 291.47221,546.32408 C 291.84478,547.06473 292.6298,547.628 293.3749,547.25988 C 295.06912,546.5414 296.41297,546.41723 298.70594,546.04466 C 299.95668,545.80958 300.70178,547.09137 299.61961,547.8542 C 298.32898,548.80334 296.4041,549.92099 294.84739,551.77931 C 293.63211,553.1498 293.24182,554.46702 292.03105,555.73106 C 291.26375,556.50718 289.65824,555.89515 289.30341,554.84401 C 281.61728,542.05744 276.09553,511.85402 277.02692,496.66362 C 277.22207,493.37716 279.29328,487.78443 282.88132,488.00621 C 287.71119,488.30335 291.27706,495.63024 294.59456,502.01244 C 298.4709,509.35704 302.90605,519.41598 306.29895,519.62001 C 308.756,519.77081 311.12439,516.41338 314.54834,512.71001 C 316.97438,510.07553 319.75962,506.64274 321.94175,504.61141 C 320.85515,498.87675 320.26083,495.13349 318.6952,488.64929 C 317.47109,483.42467 316.62844,480.2624 315.26682,475.64098 L 315.1515,475.28616 z M 312.19328,470.02607 C 311.59009,469.34751 311.07559,468.92171 310.81837,468.75319 C 309.82931,468.08348 308.76934,467.44926 306.98638,467.35611 C 305.13695,467.25853 299.49985,468.51812 299.38453,470.36759 C 299.28696,471.982 302.97258,472.43881 304.81317,472.54968 C 306.5562,472.66055 309.54104,471.41427 312.19328,470.02607 z M 307.51418,412.04527 C 306.55175,409.30879 297.6415,399.30308 290.58516,396.34482 C 284.47797,393.79462 280.6726,391.07143 277.9716,391.71895 C 277.27529,391.8875 276.96039,392.81001 277.15997,393.60835 C 277.7587,396.10533 286.19882,403.06852 292.62537,406.49688 C 300.76385,410.88327 303.91726,411.92998 307.51418,412.04527 z M 328.15094,199.85851 C 328.55457,198.33727 329.31739,197.15309 330.43506,197.42364 C 331.34427,197.68972 332.60385,199.00253 334.02756,200.94515 C 335.14521,201.21567 336.06772,201.27777 337.30067,201.34874 C 338.12119,201.40197 338.46713,201.47292 339.29653,201.41969 C 340.53835,197.99132 339.50939,196.97566 339.14572,192.26112 C 338.65339,186.01197 338.49818,185.32007 336.90154,182.85414 C 334.08075,178.45888 333.38889,177.82909 330.31531,177.64282 C 327.54333,177.46985 326.03983,178.80929 324.26134,184.16252 C 323.24568,187.39574 324.48754,185.94544 324.22141,190.25197 C 323.91981,195.17944 326.83371,199.71659 328.15094,199.85851 z M 313.22221,235.61032 C 313.22221,235.61032 305.52724,226.28762 302.96815,224.71756 C 300.40461,223.1431 297.42418,219.98969 295.98275,220.54409 C 295.27314,220.81908 296.71011,223.50679 297.11817,223.90151 C 307.4787,233.93382 313.22221,235.61032 313.22221,235.61032 z M 506.98534,270.12914 C 508.30256,269.85418 507.91226,270.92748 508.81264,271.65484 L 509.96577,271.42419 C 510.28508,271.80119 510.73306,272.3334 511.23423,272.45315 C 511.38502,272.8346 511.69546,273.22044 512.08575,273.35348 C 512.04586,274.34255 510.64432,276.1033 511.59788,276.75084 L 513.53164,277.15885 C 513.8953,277.58907 513.86424,277.86404 514.06384,278.38295 L 513.13688,278.67125 C 512.5426,279.07042 512.08575,279.78003 511.83296,280.23243 C 511.93053,280.81787 512.42285,281.52748 513.07924,281.50976 C 515.62503,284.46801 509.15854,285.81187 510.20525,287.20007 C 510.40483,288.87211 510.12098,292.65531 508.19169,293.29839 L 507.96549,294.08786 C 508.03205,295.95063 507.6373,296.29212 506.71922,296.92191 C 505.04717,296.26994 504.75003,297.06828 503.53034,298.18152 L 502.63888,297.94645 C 500.32817,300.17734 490.55752,302.25739 485.31515,302.02236 C 483.96243,301.96468 484.12652,304.40401 483.58101,305.55272 C 483.39473,305.92971 479.84217,313.37635 477.35848,312.955 C 478.18342,311.75307 479.14585,310.1653 480.20141,309.05206 C 479.2656,309.16739 477.88628,310.77734 477.02586,310.87491 C 474.99901,308.84804 475.03001,312.05024 473.3491,313.31425 C 471.75244,312.54699 470.98516,314.42748 469.4905,314.42748 C 468.70108,314.42748 469.39294,314.39643 468.64339,314.29886 C 466.37704,314.00172 463.31236,313.35418 461.21451,312.53366 C 461.04154,312.46713 458.65985,312.40949 458.06999,312.28974 C 457.91477,311.76641 457.98572,310.82614 457.29383,310.63542 C 456.87252,310.86607 456.429,310.82169 456.429,310.82169 C 456.429,310.82169 455.78588,310.01009 455.67947,310.65759 C 455.16942,309.65526 454.66821,309.64196 454.66821,309.64196 C 453.68807,309.83711 453.96749,309.38913 453.96749,309.38913 L 453.56387,308.30695 C 452.14019,307.90335 452.55266,308.75492 452.33979,309.14964 C 452.04708,309.15409 451.73214,309.14076 451.44387,309.06537 L 450.67658,309.24721 C 449.05331,309.52664 449.53234,308.87467 449.53234,308.87467 L 449.71414,308.04086 C 450.09115,306.47081 449.11987,307.26027 449.11987,307.26027 C 448.15297,308.07191 448.83599,307.49089 448.40134,307.36227 L 448.57878,306.61719 L 446.339,307.05625 L 445.42537,307.81466 L 444.34761,307.86346 C 449.57668,302.82512 454.69927,295.14341 464.36792,288.81889 C 465.52105,288.70802 472.44875,281.04849 473.29587,281.38113 C 473.42449,280.22801 475.38042,278.6402 475.53122,277.66004 C 475.74408,277.4649 477.12344,276.75972 477.22102,276.48471 L 478.06367,276.14322 L 480.36109,275.42916 C 480.36109,275.42916 496.39418,271.66372 502.94047,271.33108 C 503.23762,271.18027 503.81864,270.67023 504.03154,270.50168 C 504.03154,270.50168 506.45754,270.12472 506.98534,270.12914 z M 418.68138,229.96881 L 420.07399,229.96881 C 419.39986,230.26595 418.68138,229.96881 418.68138,229.96881 z M 289.299,373.02478 C 287.2455,372.89615 286.51813,371.30838 286.69556,368.43439 C 286.81973,366.3809 288.62485,363.91498 290.98433,364.06131 C 292.72736,364.16776 294.50144,365.51161 294.38169,367.46308 C 294.25748,369.51213 291.35245,373.14894 289.299,373.02478"
       id="path115"
       style="fill:#c30c37;fill-opacity:1;fill-rule:nonzero;stroke:none" />
  </g>
</svg>
